<svg width="332" height="84" viewBox="0 0 332 84" fill="none" xmlns="http://www.w3.org/2000/svg">
<rect width="100" height="84" rx="10" fill="url(#paint0_linear_307_42)"/>
<path fill-rule="evenodd" clip-rule="evenodd" d="M40.9797 25.9927C46.0114 26.0473 50.1113 27.9478 53.119 32.0383C53.699 32.827 53.9784 33.5819 53.1335 34.3262C52.433 34.9433 51.6022 34.717 50.8548 33.6928C47.5884 29.2172 43.0475 27.997 37.9166 29.1653C32.9363 30.2995 29.7175 33.6424 28.6654 38.6056C27.5742 43.7551 29.3035 48.0654 33.528 51.3206C33.7156 51.465 33.9119 51.5996 34.0907 51.7544C34.7312 52.3085 35.0412 52.9547 34.4555 53.709C33.866 54.4681 33.1435 54.4766 32.3681 53.9536C29.6988 52.1527 27.756 49.7602 26.5767 46.7861C23.1787 38.218 28.3013 28.5026 37.3205 26.3678C38.5214 26.0836 39.7414 25.9612 40.9797 25.9927Z" fill="white" stroke="white"/>
<path fill-rule="evenodd" clip-rule="evenodd" d="M31.4306 58.1654C31.3841 58.2787 31.3242 58.5128 31.2019 58.7089C29.9728 60.6755 28.7459 62.6437 27.4905 64.5938C26.9967 65.3606 26.304 65.8475 25.409 65.2502C24.5538 64.6792 24.6252 63.8836 25.1322 63.0797C26.3913 61.0849 27.7165 59.1266 28.871 57.0733C29.3868 56.1559 29.8521 56.1289 30.6175 56.6098C31.1595 56.9506 31.5109 57.377 31.4306 58.1654Z" fill="white" stroke="white"/>
<path fill-rule="evenodd" clip-rule="evenodd" d="M42.1401 17.4306C42.1398 18.5349 42.159 19.64 42.1342 20.7437C42.1116 21.7505 41.4823 22.4626 40.6612 22.3754C39.7129 22.2751 39.3095 21.6617 39.3112 20.7423C39.3152 18.4547 39.3068 16.1668 39.3157 13.8791C39.3192 12.9559 39.7672 12.3284 40.7243 12.3208C41.6996 12.313 42.1143 12.9811 42.1339 13.8806C42.1597 15.0635 42.1403 16.2473 42.1401 17.4306Z" fill="white" stroke="white"/>
<path fill-rule="evenodd" clip-rule="evenodd" d="M17.0169 39.5121C18.0875 39.5121 19.1583 39.4989 20.2287 39.516C21.3859 39.5345 22.0647 40.0752 21.9956 40.9598C21.9153 41.987 21.2498 42.3384 20.28 42.3315C18.0992 42.3155 15.9184 42.3314 13.7375 42.3252C12.7804 42.3222 11.9731 42.0774 11.9183 40.931C11.8727 39.9731 12.4921 39.5222 13.8051 39.5136C14.8757 39.5063 15.9464 39.512 17.0169 39.5121Z" fill="white" stroke="white"/>
<path fill-rule="evenodd" clip-rule="evenodd" d="M58.3904 32.7644C57.6282 32.7116 57.1871 32.3354 57.0076 31.7185C56.8026 31.0141 57.1418 30.4723 57.7329 30.1262C58.7534 29.5289 59.8007 28.9763 60.8409 28.4126C61.9161 27.8302 62.9901 27.2453 64.0761 26.6834C64.8623 26.2765 65.5554 26.4254 66.0134 27.1937C66.455 27.9343 66.2169 28.6216 65.5212 29.02C63.3651 30.2549 61.1745 31.4309 58.9894 32.6155C58.7891 32.7239 58.5332 32.731 58.3904 32.7644Z" fill="white" stroke="white"/>
<path fill-rule="evenodd" clip-rule="evenodd" d="M16.6903 26.7035C16.9226 26.6689 17.2558 26.9102 17.5996 27.0914C19.4829 28.0832 21.3637 29.0801 23.2384 30.0878C24.2978 30.657 24.6589 31.4789 24.227 32.2675C23.8256 33.001 22.9633 33.137 21.9293 32.5891C19.9445 31.5371 17.967 30.4715 15.9933 29.3995C15.3398 29.0446 14.9997 28.5116 15.2057 27.7432C15.3806 27.0908 15.8344 26.7775 16.6903 26.7035Z" fill="white" stroke="white"/>
<path fill-rule="evenodd" clip-rule="evenodd" d="M31.4927 23.9805C31.538 24.5636 31.265 25.0125 30.7609 25.2246C30.1819 25.4684 29.5553 25.4324 29.1477 24.8751C28.6135 24.1448 28.1325 23.3751 27.648 22.6101C26.8248 21.3108 26.0068 20.0081 25.2061 18.6948C24.7037 17.8714 24.7184 17.0876 25.6324 16.5681C26.5119 16.0685 27.1433 16.5164 27.6119 17.2624C28.8079 19.1665 29.9904 21.0789 31.1836 22.9848C31.3766 23.2936 31.5128 23.6115 31.4927 23.9805Z" fill="white" stroke="white"/>
<path fill-rule="evenodd" clip-rule="evenodd" d="M16.7863 55.3987C15.9293 55.4258 15.5164 55.0679 15.3248 54.5087C15.1174 53.9033 15.2224 53.2807 15.8104 52.949C18.0414 51.6896 20.2794 50.4397 22.5577 49.2685C23.1978 48.9397 23.8952 49.1735 24.2924 49.8639C24.6579 50.4995 24.5778 51.1597 23.9786 51.5417C21.7521 52.9618 19.3928 54.1526 17.0433 55.3574C16.9111 55.4252 16.734 55.4057 16.7863 55.3987Z" fill="white" stroke="white"/>
<path fill-rule="evenodd" clip-rule="evenodd" d="M51.3736 25.3678C50.3392 25.396 49.6079 24.3302 50.1612 23.3834C51.4287 21.2153 52.7966 19.1037 54.1701 16.9992C54.5853 16.3632 55.2799 16.2065 55.9459 16.6079C56.631 17.0204 56.9375 17.6915 56.4949 18.422C55.1931 20.5701 53.8422 22.6891 52.4955 24.8101C52.2483 25.1995 51.8369 25.3574 51.3736 25.3678Z" fill="white" stroke="white"/>
<path d="M88.305 56.2037C87.3505 50.4402 82.554 46.3488 76.6868 46.4016C75.638 46.4109 75.2438 46.1385 74.9086 45.1278C72.7716 38.6829 66.5676 34.3194 59.8118 34.3916C51.2675 34.4826 44.4677 40.8344 43.8781 49.3091C43.8369 49.9023 43.6738 50.1042 43.0712 50.1741C38.0097 50.7608 34.3862 55.0744 34.5518 60.2689C34.7087 65.1947 38.7626 69.4302 43.7255 69.5489C49.3587 69.6836 54.9972 69.5802 60.6335 69.5802C60.6335 69.5991 60.6337 69.6182 60.6337 69.6372C65.7153 69.6372 70.7967 69.6372 75.8781 69.6372C77.4287 69.6372 78.9696 69.5624 80.4552 69.0559C85.8275 67.2234 89.212 61.6824 88.305 56.2037ZM77.3013 66.7265C71.7488 66.8828 66.1884 66.7616 60.6313 66.7616C54.9948 66.7616 49.3576 66.8282 43.723 66.7361C40.4594 66.6827 37.6456 63.6812 37.3804 60.4733C37.0392 56.3438 40.1845 53.3996 43.0302 52.9811C43.616 52.8951 44.2112 52.843 44.8032 52.8316C46.3035 52.8031 46.7381 52.4088 46.6815 50.9382C46.5806 48.3125 47.1263 45.861 48.5036 43.5975C51.3806 38.8688 56.685 36.4688 62.246 37.4013C67.3656 38.2598 71.5613 42.3704 72.6845 47.6282C73.0368 49.2776 73.4928 49.5821 75.1525 49.2762C79.9492 48.3923 84.8886 51.8993 85.4937 56.6189C86.1711 61.9025 82.5016 66.58 77.3013 66.7265Z" fill="white" stroke="white"/>
<path d="M141.864 52.451C142.27 52.451 142.592 52.57 142.83 52.808C143.068 53.046 143.187 53.354 143.187 53.732V56H123.111V54.719C123.111 54.453 123.167 54.18 123.279 53.9C123.391 53.62 123.566 53.361 123.804 53.123L133.443 43.442C134.241 42.63 134.969 41.853 135.627 41.111C136.285 40.355 136.845 39.599 137.307 38.843C137.769 38.087 138.126 37.324 138.378 36.554C138.63 35.77 138.756 34.937 138.756 34.055C138.756 33.173 138.616 32.403 138.336 31.745C138.056 31.073 137.671 30.52 137.181 30.086C136.705 29.652 136.138 29.33 135.48 29.12C134.822 28.896 134.115 28.784 133.359 28.784C132.589 28.784 131.882 28.896 131.238 29.12C130.594 29.344 130.02 29.659 129.516 30.065C129.026 30.457 128.613 30.926 128.277 31.472C127.941 32.018 127.703 32.62 127.563 33.278C127.395 33.768 127.164 34.097 126.87 34.265C126.59 34.419 126.191 34.461 125.673 34.391L123.72 34.055C123.916 32.683 124.294 31.472 124.854 30.422C125.428 29.358 126.142 28.469 126.996 27.755C127.864 27.041 128.851 26.502 129.957 26.138C131.063 25.76 132.26 25.571 133.548 25.571C134.822 25.571 136.012 25.76 137.118 26.138C138.224 26.516 139.183 27.069 139.995 27.797C140.807 28.511 141.444 29.386 141.906 30.422C142.368 31.458 142.599 32.634 142.599 33.95C142.599 35.07 142.431 36.113 142.095 37.079C141.759 38.031 141.304 38.941 140.73 39.809C140.156 40.677 139.491 41.524 138.735 42.35C137.993 43.176 137.202 44.009 136.362 44.849L128.424 52.955C128.984 52.801 129.551 52.682 130.125 52.598C130.699 52.5 131.252 52.451 131.784 52.451H141.864ZM166.878 53.144V56H150.75V53.144H157.197V32.627C157.197 32.011 157.218 31.388 157.26 30.758L151.905 35.357C151.723 35.511 151.541 35.609 151.359 35.651C151.177 35.679 151.009 35.679 150.855 35.651C150.701 35.623 150.554 35.567 150.414 35.483C150.288 35.399 150.19 35.308 150.12 35.21L148.944 33.593L157.911 25.844H160.956V53.144H166.878Z" fill="white"/>
<path d="M175.25 20C175.25 22.8995 172.899 25.25 170 25.25C167.101 25.25 164.75 22.8995 164.75 20C164.75 17.1005 167.101 14.75 170 14.75C172.899 14.75 175.25 17.1005 175.25 20Z" stroke="white" stroke-width="1.5"/>
<path d="M123.812 67.328C123.764 67.408 123.711 67.4693 123.652 67.512C123.599 67.5493 123.532 67.568 123.452 67.568C123.362 67.568 123.255 67.5227 123.132 67.432C123.01 67.3413 122.855 67.2427 122.668 67.136C122.487 67.024 122.266 66.9227 122.004 66.832C121.748 66.7413 121.436 66.696 121.068 66.696C120.722 66.696 120.415 66.744 120.148 66.84C119.887 66.9307 119.666 67.056 119.484 67.216C119.308 67.376 119.175 67.5653 119.084 67.784C118.994 67.9973 118.948 68.2293 118.948 68.48C118.948 68.8 119.026 69.0667 119.18 69.28C119.34 69.488 119.548 69.6667 119.804 69.816C120.066 69.9653 120.359 70.096 120.684 70.208C121.015 70.3147 121.351 70.4267 121.692 70.544C122.039 70.6613 122.375 70.7947 122.7 70.944C123.031 71.088 123.324 71.272 123.58 71.496C123.842 71.72 124.05 71.9947 124.204 72.32C124.364 72.6453 124.444 73.0453 124.444 73.52C124.444 74.0213 124.359 74.4933 124.188 74.936C124.018 75.3733 123.767 75.7547 123.436 76.08C123.111 76.4053 122.708 76.6613 122.228 76.848C121.754 77.0347 121.212 77.128 120.604 77.128C119.858 77.128 119.18 76.9947 118.572 76.728C117.964 76.456 117.444 76.0907 117.012 75.632L117.46 74.896C117.503 74.8373 117.554 74.7893 117.612 74.752C117.676 74.7093 117.746 74.688 117.82 74.688C117.89 74.688 117.967 74.7173 118.052 74.776C118.143 74.8293 118.244 74.8987 118.356 74.984C118.468 75.0693 118.596 75.1627 118.74 75.264C118.884 75.3653 119.047 75.4587 119.228 75.544C119.415 75.6293 119.626 75.7013 119.86 75.76C120.095 75.8133 120.359 75.84 120.652 75.84C121.02 75.84 121.348 75.7893 121.636 75.688C121.924 75.5867 122.167 75.4453 122.364 75.264C122.567 75.0773 122.722 74.856 122.828 74.6C122.935 74.344 122.988 74.0587 122.988 73.744C122.988 73.3973 122.908 73.1147 122.748 72.896C122.594 72.672 122.388 72.4853 122.132 72.336C121.876 72.1867 121.583 72.0613 121.252 71.96C120.922 71.8533 120.586 71.7467 120.244 71.64C119.903 71.528 119.567 71.4 119.236 71.256C118.906 71.112 118.612 70.9253 118.356 70.696C118.1 70.4667 117.892 70.1813 117.732 69.84C117.578 69.4933 117.5 69.0667 117.5 68.56C117.5 68.1547 117.578 67.7627 117.732 67.384C117.892 67.0053 118.122 66.6693 118.42 66.376C118.724 66.0827 119.095 65.848 119.532 65.672C119.975 65.496 120.482 65.408 121.052 65.408C121.692 65.408 122.274 65.5093 122.796 65.712C123.324 65.9147 123.788 66.208 124.188 66.592L123.812 67.328ZM132.808 68.896V77H131.96C131.757 77 131.629 76.9013 131.576 76.704L131.464 75.832C131.112 76.2213 130.717 76.536 130.28 76.776C129.842 77.0107 129.341 77.128 128.776 77.128C128.333 77.128 127.941 77.056 127.6 76.912C127.264 76.7627 126.981 76.5547 126.752 76.288C126.522 76.0213 126.349 75.6987 126.232 75.32C126.12 74.9413 126.064 74.5227 126.064 74.064V68.896H127.488V74.064C127.488 74.6773 127.626 75.152 127.904 75.488C128.186 75.824 128.616 75.992 129.192 75.992C129.613 75.992 130.005 75.8933 130.368 75.696C130.736 75.4933 131.074 75.216 131.384 74.864V68.896H132.808ZM136.41 70.072C136.586 69.8747 136.772 69.696 136.97 69.536C137.167 69.376 137.375 69.24 137.594 69.128C137.818 69.0107 138.052 68.9227 138.298 68.864C138.548 68.8 138.818 68.768 139.106 68.768C139.548 68.768 139.938 68.8427 140.274 68.992C140.615 69.136 140.898 69.344 141.122 69.616C141.351 69.8827 141.524 70.2053 141.642 70.584C141.759 70.9627 141.818 71.3813 141.818 71.84V77H140.386V71.84C140.386 71.2267 140.244 70.752 139.962 70.416C139.684 70.0747 139.26 69.904 138.69 69.904C138.268 69.904 137.874 70.0053 137.506 70.208C137.143 70.4107 136.807 70.6853 136.498 71.032V77H135.066V68.896H135.922C136.124 68.896 136.25 68.9947 136.298 69.192L136.41 70.072ZM145.331 70.072C145.507 69.8747 145.694 69.696 145.891 69.536C146.089 69.376 146.297 69.24 146.515 69.128C146.739 69.0107 146.974 68.9227 147.219 68.864C147.47 68.8 147.739 68.768 148.027 68.768C148.47 68.768 148.859 68.8427 149.195 68.992C149.537 69.136 149.819 69.344 150.043 69.616C150.273 69.8827 150.446 70.2053 150.563 70.584C150.681 70.9627 150.739 71.3813 150.739 71.84V77H149.307V71.84C149.307 71.2267 149.166 70.752 148.883 70.416C148.606 70.0747 148.182 69.904 147.611 69.904C147.19 69.904 146.795 70.0053 146.427 70.208C146.065 70.4107 145.729 70.6853 145.419 71.032V77H143.987V68.896H144.843C145.046 68.896 145.171 68.9947 145.219 69.192L145.331 70.072ZM159.698 68.896L155.178 79.392C155.13 79.4987 155.069 79.584 154.994 79.648C154.925 79.712 154.815 79.744 154.666 79.744H153.61L155.09 76.528L151.746 68.896H152.978C153.101 68.896 153.197 68.928 153.266 68.992C153.341 69.0507 153.391 69.1173 153.418 69.192L155.586 74.296C155.671 74.52 155.743 74.7547 155.802 75C155.877 74.7493 155.957 74.512 156.042 74.288L158.146 69.192C158.178 69.1067 158.231 69.0373 158.306 68.984C158.386 68.9253 158.474 68.896 158.57 68.896H159.698ZM174.931 71.272C174.931 72.1307 174.795 72.912 174.523 73.616C174.251 74.32 173.867 74.9227 173.371 75.424C172.875 75.9253 172.278 76.3147 171.579 76.592C170.886 76.864 170.118 77 169.275 77H164.995V65.536H169.275C170.118 65.536 170.886 65.6747 171.579 65.952C172.278 66.224 172.875 66.6133 173.371 67.12C173.867 67.6213 174.251 68.224 174.523 68.928C174.795 69.632 174.931 70.4133 174.931 71.272ZM173.339 71.272C173.339 70.568 173.243 69.9387 173.051 69.384C172.859 68.8293 172.587 68.36 172.235 67.976C171.883 67.592 171.457 67.2987 170.955 67.096C170.454 66.8933 169.894 66.792 169.275 66.792H166.547V75.744H169.275C169.894 75.744 170.454 75.6427 170.955 75.44C171.457 75.2373 171.883 74.9467 172.235 74.568C172.587 74.184 172.859 73.7147 173.051 73.16C173.243 72.6053 173.339 71.976 173.339 71.272ZM181.02 73.352C180.364 73.3733 179.804 73.4267 179.34 73.512C178.881 73.592 178.505 73.6987 178.212 73.832C177.924 73.9653 177.713 74.1227 177.58 74.304C177.452 74.4853 177.388 74.688 177.388 74.912C177.388 75.1253 177.423 75.3093 177.492 75.464C177.561 75.6187 177.655 75.7467 177.772 75.848C177.895 75.944 178.036 76.016 178.196 76.064C178.361 76.1067 178.537 76.128 178.724 76.128C178.975 76.128 179.204 76.104 179.412 76.056C179.62 76.0027 179.815 75.928 179.996 75.832C180.183 75.736 180.359 75.6213 180.524 75.488C180.695 75.3547 180.86 75.2027 181.02 75.032V73.352ZM176.42 70.04C176.868 69.608 177.351 69.2853 177.868 69.072C178.385 68.8587 178.959 68.752 179.588 68.752C180.041 68.752 180.444 68.8267 180.796 68.976C181.148 69.1253 181.444 69.3333 181.684 69.6C181.924 69.8667 182.105 70.1893 182.228 70.568C182.351 70.9467 182.412 71.3627 182.412 71.816V77H181.78C181.641 77 181.535 76.9787 181.46 76.936C181.385 76.888 181.327 76.7973 181.284 76.664L181.124 75.896C180.911 76.0933 180.703 76.2693 180.5 76.424C180.297 76.5733 180.084 76.7013 179.86 76.808C179.636 76.9093 179.396 76.9867 179.14 77.04C178.889 77.0987 178.609 77.128 178.3 77.128C177.985 77.128 177.689 77.0853 177.412 77C177.135 76.9093 176.892 76.776 176.684 76.6C176.481 76.424 176.319 76.2027 176.196 75.936C176.079 75.664 176.02 75.344 176.02 74.976C176.02 74.656 176.108 74.3493 176.284 74.056C176.46 73.7573 176.745 73.4933 177.14 73.264C177.535 73.0347 178.049 72.848 178.684 72.704C179.319 72.5547 180.097 72.4693 181.02 72.448V71.816C181.02 71.1867 180.884 70.712 180.612 70.392C180.34 70.0667 179.943 69.904 179.42 69.904C179.068 69.904 178.772 69.9493 178.532 70.04C178.297 70.1253 178.092 70.224 177.916 70.336C177.745 70.4427 177.596 70.5413 177.468 70.632C177.345 70.7173 177.223 70.76 177.1 70.76C177.004 70.76 176.921 70.736 176.852 70.688C176.783 70.6347 176.724 70.5707 176.676 70.496L176.42 70.04ZM191.386 68.896L186.866 79.392C186.818 79.4987 186.756 79.584 186.682 79.648C186.612 79.712 186.503 79.744 186.354 79.744H185.298L186.778 76.528L183.434 68.896H184.666C184.788 68.896 184.884 68.928 184.954 68.992C185.028 69.0507 185.079 69.1173 185.106 69.192L187.274 74.296C187.359 74.52 187.431 74.7547 187.49 75C187.564 74.7493 187.644 74.512 187.73 74.288L189.834 69.192C189.866 69.1067 189.919 69.0373 189.994 68.984C190.074 68.9253 190.162 68.896 190.258 68.896H191.386Z" fill="white"/>
<path d="M187.752 39.448C187.88 39.448 187.992 39.5 188.088 39.604L189.012 40.6C188.308 41.416 187.452 42.052 186.444 42.508C185.444 42.964 184.232 43.192 182.808 43.192C181.576 43.192 180.456 42.98 179.448 42.556C178.44 42.124 177.58 41.524 176.868 40.756C176.156 39.98 175.604 39.052 175.212 37.972C174.82 36.892 174.624 35.704 174.624 34.408C174.624 33.112 174.828 31.924 175.236 30.844C175.644 29.764 176.216 28.836 176.952 28.06C177.696 27.284 178.584 26.684 179.616 26.26C180.648 25.828 181.788 25.612 183.036 25.612C184.26 25.612 185.34 25.808 186.276 26.2C187.212 26.592 188.036 27.124 188.748 27.796L187.98 28.864C187.932 28.944 187.868 29.012 187.788 29.068C187.716 29.116 187.616 29.14 187.488 29.14C187.344 29.14 187.168 29.064 186.96 28.912C186.752 28.752 186.48 28.576 186.144 28.384C185.808 28.192 185.388 28.02 184.884 27.868C184.38 27.708 183.76 27.628 183.024 27.628C182.136 27.628 181.324 27.784 180.588 28.096C179.852 28.4 179.216 28.844 178.68 29.428C178.152 30.012 177.74 30.724 177.444 31.564C177.148 32.404 177 33.352 177 34.408C177 35.48 177.152 36.436 177.456 37.276C177.768 38.116 178.188 38.828 178.716 39.412C179.252 39.988 179.88 40.428 180.6 40.732C181.328 41.036 182.112 41.188 182.952 41.188C183.464 41.188 183.924 41.16 184.332 41.104C184.748 41.04 185.128 40.944 185.472 40.816C185.824 40.688 186.148 40.528 186.444 40.336C186.748 40.136 187.048 39.9 187.344 39.628C187.48 39.508 187.616 39.448 187.752 39.448Z" fill="white"/>
<path d="M217.956 50.207V52H209.013V36.237H211.136V50.207H217.956ZM228.392 40.857V52H227.226C226.947 52 226.771 51.8643 226.698 51.593L226.544 50.394C226.06 50.9293 225.517 51.362 224.916 51.692C224.314 52.0147 223.625 52.176 222.848 52.176C222.239 52.176 221.7 52.077 221.231 51.879C220.769 51.6737 220.38 51.3877 220.065 51.021C219.749 50.6543 219.511 50.2107 219.35 49.69C219.196 49.1693 219.119 48.5937 219.119 47.963V40.857H221.077V47.963C221.077 48.8063 221.267 49.459 221.649 49.921C222.037 50.383 222.628 50.614 223.42 50.614C223.999 50.614 224.538 50.4783 225.037 50.207C225.543 49.9283 226.008 49.547 226.434 49.063V40.857H228.392ZM239.251 42.837C239.193 42.9177 239.134 42.98 239.075 43.024C239.017 43.068 238.936 43.09 238.833 43.09C238.723 43.09 238.602 43.046 238.47 42.958C238.338 42.8627 238.173 42.76 237.975 42.65C237.785 42.54 237.546 42.441 237.26 42.353C236.982 42.2577 236.637 42.21 236.226 42.21C235.676 42.21 235.192 42.309 234.774 42.507C234.356 42.6977 234.004 42.9763 233.718 43.343C233.44 43.7097 233.227 44.1533 233.08 44.674C232.941 45.1947 232.871 45.7777 232.871 46.423C232.871 47.0977 232.948 47.699 233.102 48.227C233.256 48.7477 233.473 49.1877 233.751 49.547C234.037 49.899 234.378 50.1703 234.774 50.361C235.178 50.5443 235.629 50.636 236.127 50.636C236.604 50.636 236.996 50.581 237.304 50.471C237.612 50.3537 237.865 50.2253 238.063 50.086C238.269 49.9467 238.437 49.822 238.569 49.712C238.709 49.5947 238.844 49.536 238.976 49.536C239.138 49.536 239.262 49.5983 239.35 49.723L239.9 50.438C239.658 50.7387 239.383 50.9953 239.075 51.208C238.767 51.4207 238.434 51.6003 238.074 51.747C237.722 51.8863 237.352 51.989 236.963 52.055C236.575 52.121 236.179 52.154 235.775 52.154C235.079 52.154 234.43 52.0257 233.828 51.769C233.234 51.5123 232.717 51.142 232.277 50.658C231.837 50.1667 231.493 49.5653 231.243 48.854C230.994 48.1427 230.869 47.3323 230.869 46.423C230.869 45.5943 230.983 44.828 231.21 44.124C231.445 43.42 231.782 42.815 232.222 42.309C232.67 41.7957 233.216 41.396 233.861 41.11C234.514 40.824 235.262 40.681 236.105 40.681C236.89 40.681 237.579 40.8093 238.173 41.066C238.775 41.3153 239.306 41.671 239.768 42.133L239.251 42.837ZM243.971 35.797V45.334H244.477C244.624 45.334 244.745 45.3157 244.84 45.279C244.943 45.235 245.049 45.1507 245.159 45.026L248.679 41.253C248.782 41.1283 248.888 41.033 248.998 40.967C249.116 40.8937 249.27 40.857 249.46 40.857H251.231L247.128 45.224C246.93 45.4733 246.718 45.6677 246.49 45.807C246.622 45.895 246.74 45.9977 246.842 46.115C246.952 46.225 247.055 46.3533 247.15 46.5L251.506 52H249.757C249.589 52 249.442 51.9743 249.317 51.923C249.2 51.8643 249.097 51.7617 249.009 51.615L245.346 47.05C245.236 46.896 245.126 46.797 245.016 46.753C244.914 46.7017 244.752 46.676 244.532 46.676H243.971V52H242.002V35.797H243.971ZM255.022 42.474C255.264 42.2027 255.521 41.957 255.792 41.737C256.063 41.517 256.349 41.33 256.65 41.176C256.958 41.0147 257.281 40.8937 257.618 40.813C257.963 40.725 258.333 40.681 258.729 40.681C259.338 40.681 259.873 40.7837 260.335 40.989C260.804 41.187 261.193 41.473 261.501 41.847C261.816 42.2137 262.055 42.6573 262.216 43.178C262.377 43.6987 262.458 44.2743 262.458 44.905V52H260.489V44.905C260.489 44.0617 260.295 43.409 259.906 42.947C259.525 42.4777 258.942 42.243 258.157 42.243C257.578 42.243 257.035 42.3823 256.529 42.661C256.03 42.9397 255.568 43.3173 255.143 43.794V52H253.174V40.857H254.351C254.63 40.857 254.802 40.9927 254.868 41.264L255.022 42.474ZM270.139 40.681C270.953 40.681 271.686 40.8167 272.339 41.088C272.991 41.3593 273.549 41.7443 274.011 42.243C274.473 42.7417 274.825 43.3467 275.067 44.058C275.316 44.762 275.441 45.5503 275.441 46.423C275.441 47.303 275.316 48.095 275.067 48.799C274.825 49.503 274.473 50.1043 274.011 50.603C273.549 51.1017 272.991 51.4867 272.339 51.758C271.686 52.022 270.953 52.154 270.139 52.154C269.317 52.154 268.577 52.022 267.917 51.758C267.264 51.4867 266.707 51.1017 266.245 50.603C265.783 50.1043 265.427 49.503 265.178 48.799C264.936 48.095 264.815 47.303 264.815 46.423C264.815 45.5503 264.936 44.762 265.178 44.058C265.427 43.3467 265.783 42.7417 266.245 42.243C266.707 41.7443 267.264 41.3593 267.917 41.088C268.577 40.8167 269.317 40.681 270.139 40.681ZM270.139 50.625C271.239 50.625 272.06 50.2583 272.603 49.525C273.145 48.7843 273.417 47.754 273.417 46.434C273.417 45.1067 273.145 44.0727 272.603 43.332C272.06 42.5913 271.239 42.221 270.139 42.221C269.581 42.221 269.094 42.3163 268.676 42.507C268.265 42.6977 267.92 42.9727 267.642 43.332C267.37 43.6913 267.165 44.135 267.026 44.663C266.894 45.1837 266.828 45.774 266.828 46.434C266.828 47.754 267.099 48.7843 267.642 49.525C268.192 50.2583 269.024 50.625 270.139 50.625ZM293.119 40.857L289.511 52H287.96C287.77 52 287.638 51.8753 287.564 51.626L285.1 44.069C285.042 43.9003 284.994 43.7317 284.957 43.563C284.921 43.387 284.884 43.2147 284.847 43.046C284.811 43.2147 284.774 43.387 284.737 43.563C284.701 43.7317 284.653 43.904 284.594 44.08L282.086 51.626C282.02 51.8753 281.874 52 281.646 52H280.172L276.564 40.857H278.104C278.258 40.857 278.387 40.8973 278.489 40.978C278.599 41.0587 278.673 41.154 278.709 41.264L280.843 48.436C280.968 48.964 281.067 49.4627 281.14 49.932C281.206 49.69 281.272 49.4443 281.338 49.195C281.412 48.9457 281.489 48.6927 281.569 48.436L283.923 41.22C283.96 41.11 284.022 41.0183 284.11 40.945C284.206 40.8717 284.319 40.835 284.451 40.835H285.309C285.456 40.835 285.577 40.8717 285.672 40.945C285.768 41.0183 285.834 41.11 285.87 41.22L288.169 48.436C288.25 48.6927 288.323 48.9457 288.389 49.195C288.455 49.4443 288.518 49.69 288.576 49.932C288.613 49.69 288.657 49.448 288.708 49.206C288.767 48.9567 288.829 48.7 288.895 48.436L291.073 41.264C291.11 41.1467 291.18 41.0513 291.282 40.978C291.385 40.8973 291.506 40.857 291.645 40.857H293.119ZM294.389 54.662C294.33 54.6107 294.29 54.563 294.268 54.519C294.246 54.475 294.235 54.42 294.235 54.354C294.235 54.3027 294.25 54.2513 294.279 54.2C294.316 54.1487 294.356 54.101 294.4 54.057C294.473 53.9763 294.565 53.87 294.675 53.738C294.792 53.606 294.91 53.4483 295.027 53.265C295.144 53.089 295.251 52.891 295.346 52.671C295.449 52.4583 295.522 52.231 295.566 51.989C295.544 51.9963 295.518 52 295.489 52C295.467 52 295.445 52 295.423 52C295.042 52 294.73 51.8753 294.488 51.626C294.253 51.3693 294.136 51.043 294.136 50.647C294.136 50.3023 294.253 50.009 294.488 49.767C294.73 49.525 295.049 49.404 295.445 49.404C295.665 49.404 295.859 49.4443 296.028 49.525C296.197 49.6057 296.336 49.7193 296.446 49.866C296.563 50.0053 296.651 50.1703 296.71 50.361C296.769 50.5443 296.798 50.746 296.798 50.966C296.798 51.296 296.75 51.6407 296.655 52C296.567 52.352 296.431 52.7003 296.248 53.045C296.072 53.397 295.856 53.738 295.599 54.068C295.342 54.398 295.049 54.7023 294.719 54.981L294.389 54.662ZM311.668 50.306C312.321 50.306 312.904 50.196 313.417 49.976C313.931 49.756 314.363 49.448 314.715 49.052C315.075 48.656 315.346 48.183 315.529 47.633C315.72 47.083 315.815 46.478 315.815 45.818V36.237H317.938V45.818C317.938 46.7273 317.792 47.5707 317.498 48.348C317.212 49.1253 316.798 49.8 316.255 50.372C315.72 50.9367 315.064 51.3803 314.286 51.703C313.509 52.0257 312.636 52.187 311.668 52.187C310.7 52.187 309.828 52.0257 309.05 51.703C308.273 51.3803 307.613 50.9367 307.07 50.372C306.528 49.8 306.11 49.1253 305.816 48.348C305.53 47.5707 305.387 46.7273 305.387 45.818V36.237H307.51V45.807C307.51 46.467 307.602 47.072 307.785 47.622C307.976 48.172 308.247 48.645 308.599 49.041C308.959 49.437 309.395 49.7487 309.908 49.976C310.429 50.196 311.016 50.306 311.668 50.306ZM322.948 49.316C323.307 49.8 323.699 50.141 324.125 50.339C324.55 50.537 325.027 50.636 325.555 50.636C326.596 50.636 327.395 50.2657 327.953 49.525C328.51 48.7843 328.789 47.7283 328.789 46.357C328.789 45.631 328.723 45.0077 328.591 44.487C328.466 43.9663 328.283 43.541 328.041 43.211C327.799 42.8737 327.502 42.628 327.15 42.474C326.798 42.32 326.398 42.243 325.951 42.243C325.313 42.243 324.752 42.3897 324.268 42.683C323.791 42.9763 323.351 43.3907 322.948 43.926V49.316ZM322.849 42.584C323.318 42.0047 323.861 41.539 324.477 41.187C325.093 40.835 325.797 40.659 326.589 40.659C327.234 40.659 327.817 40.7837 328.338 41.033C328.858 41.275 329.302 41.638 329.669 42.122C330.035 42.5987 330.318 43.1927 330.516 43.904C330.714 44.6153 330.813 45.433 330.813 46.357C330.813 47.1783 330.703 47.9447 330.483 48.656C330.263 49.36 329.944 49.9723 329.526 50.493C329.115 51.0063 328.609 51.4133 328.008 51.714C327.414 52.0073 326.743 52.154 325.995 52.154C325.313 52.154 324.726 52.0403 324.235 51.813C323.751 51.5783 323.322 51.2557 322.948 50.845V55.773H320.979V40.857H322.156C322.434 40.857 322.607 40.9927 322.673 41.264L322.849 42.584ZM211.147 78H209.013V62.237H211.147V78ZM216.393 68.474C216.635 68.2027 216.892 67.957 217.163 67.737C217.434 67.517 217.72 67.33 218.021 67.176C218.329 67.0147 218.652 66.8937 218.989 66.813C219.334 66.725 219.704 66.681 220.1 66.681C220.709 66.681 221.244 66.7837 221.706 66.989C222.175 67.187 222.564 67.473 222.872 67.847C223.187 68.2137 223.426 68.6573 223.587 69.178C223.748 69.6987 223.829 70.2743 223.829 70.905V78H221.86V70.905C221.86 70.0617 221.666 69.409 221.277 68.947C220.896 68.4777 220.313 68.243 219.528 68.243C218.949 68.243 218.406 68.3823 217.9 68.661C217.401 68.9397 216.939 69.3173 216.514 69.794V78H214.545V66.857H215.722C216.001 66.857 216.173 66.9927 216.239 67.264L216.393 68.474ZM234.073 69.508C233.706 69.0167 233.31 68.6757 232.885 68.485C232.459 68.287 231.983 68.188 231.455 68.188C230.421 68.188 229.625 68.5583 229.068 69.299C228.51 70.0397 228.232 71.0957 228.232 72.467C228.232 73.193 228.294 73.8163 228.419 74.337C228.543 74.8503 228.727 75.2757 228.969 75.613C229.211 75.943 229.508 76.185 229.86 76.339C230.212 76.493 230.611 76.57 231.059 76.57C231.704 76.57 232.265 76.4233 232.742 76.13C233.226 75.8367 233.669 75.4223 234.073 74.887V69.508ZM236.031 61.797V78H234.865C234.586 78 234.41 77.8643 234.337 77.593L234.161 76.24C233.684 76.812 233.141 77.274 232.533 77.626C231.924 77.978 231.22 78.154 230.421 78.154C229.783 78.154 229.203 78.033 228.683 77.791C228.162 77.5417 227.718 77.1787 227.352 76.702C226.985 76.2253 226.703 75.6313 226.505 74.92C226.307 74.2087 226.208 73.391 226.208 72.467C226.208 71.6457 226.318 70.883 226.538 70.179C226.758 69.4677 227.073 68.8517 227.484 68.331C227.894 67.8103 228.397 67.4033 228.991 67.11C229.592 66.8093 230.267 66.659 231.015 66.659C231.697 66.659 232.28 66.7763 232.764 67.011C233.255 67.2383 233.691 67.5573 234.073 67.968V61.797H236.031ZM241.191 66.857V78H239.233V66.857H241.191ZM241.609 63.359C241.609 63.5497 241.569 63.7293 241.488 63.898C241.415 64.0593 241.312 64.206 241.18 64.338C241.056 64.4627 240.905 64.5617 240.729 64.635C240.561 64.7083 240.381 64.745 240.19 64.745C240 64.745 239.82 64.7083 239.651 64.635C239.49 64.5617 239.347 64.4627 239.222 64.338C239.098 64.206 238.999 64.0593 238.925 63.898C238.852 63.7293 238.815 63.5497 238.815 63.359C238.815 63.1683 238.852 62.9887 238.925 62.82C238.999 62.644 239.098 62.4937 239.222 62.369C239.347 62.237 239.49 62.1343 239.651 62.061C239.82 61.9877 240 61.951 240.19 61.951C240.381 61.951 240.561 61.9877 240.729 62.061C240.905 62.1343 241.056 62.237 241.18 62.369C241.312 62.4937 241.415 62.644 241.488 62.82C241.569 62.9887 241.609 63.1683 241.609 63.359ZM250.447 72.984C249.545 73.0133 248.775 73.0867 248.137 73.204C247.507 73.314 246.99 73.4607 246.586 73.644C246.19 73.8273 245.901 74.0437 245.717 74.293C245.541 74.5423 245.453 74.821 245.453 75.129C245.453 75.4223 245.501 75.6753 245.596 75.888C245.692 76.1007 245.82 76.2767 245.981 76.416C246.15 76.548 246.344 76.647 246.564 76.713C246.792 76.7717 247.034 76.801 247.29 76.801C247.635 76.801 247.95 76.768 248.236 76.702C248.522 76.6287 248.79 76.526 249.039 76.394C249.296 76.262 249.538 76.1043 249.765 75.921C250 75.7377 250.227 75.5287 250.447 75.294V72.984ZM244.122 68.43C244.738 67.836 245.402 67.3923 246.113 67.099C246.825 66.8057 247.613 66.659 248.478 66.659C249.102 66.659 249.655 66.7617 250.139 66.967C250.623 67.1723 251.03 67.4583 251.36 67.825C251.69 68.1917 251.94 68.6353 252.108 69.156C252.277 69.6767 252.361 70.2487 252.361 70.872V78H251.492C251.302 78 251.155 77.9707 251.052 77.912C250.95 77.846 250.869 77.7213 250.81 77.538L250.59 76.482C250.297 76.7533 250.011 76.9953 249.732 77.208C249.454 77.4133 249.16 77.5893 248.852 77.736C248.544 77.8753 248.214 77.9817 247.862 78.055C247.518 78.1357 247.133 78.176 246.707 78.176C246.275 78.176 245.868 78.1173 245.486 78C245.105 77.8753 244.771 77.692 244.485 77.45C244.207 77.208 243.983 76.9037 243.814 76.537C243.653 76.163 243.572 75.723 243.572 75.217C243.572 74.777 243.693 74.3553 243.935 73.952C244.177 73.5413 244.57 73.1783 245.112 72.863C245.655 72.5477 246.363 72.291 247.235 72.093C248.108 71.8877 249.179 71.7703 250.447 71.741V70.872C250.447 70.0067 250.26 69.354 249.886 68.914C249.512 68.4667 248.966 68.243 248.247 68.243C247.763 68.243 247.356 68.3053 247.026 68.43C246.704 68.5473 246.421 68.683 246.179 68.837C245.945 68.9837 245.739 69.1193 245.563 69.244C245.395 69.3613 245.226 69.42 245.057 69.42C244.925 69.42 244.812 69.387 244.716 69.321C244.621 69.2477 244.54 69.1597 244.474 69.057L244.122 68.43Z" fill="white"/>
<defs>
<linearGradient id="paint0_linear_307_42" x1="50" y1="0" x2="50" y2="84" gradientUnits="userSpaceOnUse">
<stop stop-color="#1B8F62"/>
<stop offset="1" stop-color="#00A793"/>
</linearGradient>
</defs>
</svg>
